<?xml version="1.0" encoding="utf-8"?>
<!-- Generator: Adobe Illustrator 16.0.0, SVG Export Plug-In . SVG Version: 6.00 Build 0)  -->
<!DOCTYPE svg PUBLIC "-//W3C//DTD SVG 1.1//EN" "http://www.w3.org/Graphics/SVG/1.1/DTD/svg11.dtd">
<svg version="1.1" xmlns="http://www.w3.org/2000/svg" xmlns:xlink="http://www.w3.org/1999/xlink" x="0px" y="0px" width="96px"
	 height="96px" viewBox="0 0 96 96" enable-background="new 0 0 96 96" xml:space="preserve">
<g id="Socials" display="none">
	<g display="inline">
		<g>
			<path fill="#030000" d="M19.515,84.304c-3.722-8.562-1.09-19.521-1.205-28.557c-0.144-11.288-4.761-24.312,0.257-35.057
				c0.727-1.555-1.077-0.355,0.904-0.427c2.686-0.096,5.426,0.208,8.102,0.397c6.195,0.44,12.358,1.134,18.571,1.318
				c6.269,0.187,12.555,0.187,18.826,0.301c1.753,0.031,12.189-0.748,12.517-0.253c1.801,2.73,1.171,8.17,1.656,11.321
				c0.864,5.619,1.507,11.109,1.678,16.805c0.31,10.277,0.269,20.783-0.178,31.06c0.03,0.437-0.032,0.863-0.187,1.278
				c0.695-0.664,1.391-1.328,2.086-1.992c-0.801,0.027-1.602,0.011-2.4-0.053c-2.764-0.135-5.525-0.265-8.288-0.414
				c-6.302-0.342-12.597-0.799-18.91-0.69c-12.68,0.219-25.252,2.227-37.942,2.324c-7.735,0.06-7.741,12.06,0,12
				c15.204-0.116,30.354-3.036,45.565-2.233c6.943,0.365,13.885,0.736,20.828,1.075c5.471,0.268,10.201-3.068,10.946-8.598
				c0.689-5.116,0.304-10.359,0.371-15.511c0.096-7.308,0.284-14.604-0.023-21.91c-0.267-6.318-1.587-12.452-2.176-18.72
				c-0.517-5.498-1.079-12.491-6.282-15.766c-4.705-2.962-10.234-1.66-15.474-1.679C61.22,10.3,53.681,10.059,46.144,9.979
				C38.7,9.901,31.283,8.864,23.858,8.418c-4.938-0.296-10.186-0.454-13.792,3.509C0.71,22.209,5.235,39.758,6.134,51.959
				c0.957,12.987-2.361,26.024,3.02,38.401C12.231,97.441,22.567,91.325,19.515,84.304L19.515,84.304z"/>
		</g>
	</g>
	<g display="inline">
		<g>
			<path fill="#030000" d="M8.881,21.261c3.055,9.695,11.55,15.315,18.878,21.647c5.98,5.17,10.377,13.415,18.337,15.927
				c8.924,2.815,15.708-5.581,20.697-11.706c7.097-8.713,14.803-16.814,20.722-26.435c4.067-6.61-6.315-12.633-10.361-6.057
				C72.411,22.346,66.35,28.677,60.699,35.66c-2.216,2.739-4.393,5.496-6.778,8.091c-1.015,1.104-2.106,2.214-3.323,3.095
				c-1.566,1.134-0.041,1.029-1.634,0.148c-5.108-2.827-8.438-8.708-12.721-12.57c-5.288-4.77-13.533-9.186-15.79-16.353
				C18.136,10.717,6.55,13.859,8.881,21.261L8.881,21.261z"/>
		</g>
	</g>
</g>
<g id="Music">
	<g>
		<path fill="#28AABD" d="M44,11.666c-18.006-1.502-20.396,8.297-25.081,14.593C8.771,40.951,5.258,52.495,15.017,67.887
			c8.978,13.644,28.104,20.639,44.891,13.992C77.081,75.583,89.964,51.795,84.5,35.704c-3.124-8.745-13.301-18.305-23.167-20.705
			C53.368,13.062,65.994,15.313,44,11.666"/>
		<g>
			<path fill="#28AABD" d="M44,3.666C32.603,2.922,23.282,6.324,16.43,15.531C10.062,24.089,3.557,34.035,1.788,44.684
				C-2.751,72.01,24.223,94.151,49.941,92.26C74.076,90.485,92.5,68.385,93.754,44.874c0.684-12.828-7.287-24.197-17.379-31.363
				c-4.477-3.179-9.289-5.258-14.581-6.647C58.075,5.886,66.11,8.2,60.142,6.281c-4.368-1.404-9.518-1.585-14.015-2.329
				c-4.299-0.712-8.596,1.059-9.841,5.587c-1.064,3.868,1.279,9.128,5.587,9.841c3.941,0.653,7.885,1.299,11.827,1.944
				c2.276,0.372,2.368,1.128,0.429-0.347c0.949,0.722,2.671,1.119,3.874,1.436c4.8,1.261,8.689,3.417,12.375,6.762
				c6.826,6.196,8.594,13.409,6.276,22.126c-2.234,8.407-7.924,16.272-15.238,20.958C45.297,82.585,19.561,72.454,17.337,52.55
				c-1.09-9.758,5.806-17.796,10.652-25.511c1.545-2.459,2.559-4.241,4.313-5.484c3.369-2.389,7.741-2.146,11.697-1.889
				C54.307,20.339,54.241,4.334,44,3.666L44,3.666z"/>
		</g>
	</g>
	<g>
		<g>
			<path d="M12.586,57.746c10.327,8.078,22.933,10.732,35.779,10.775c5.48,0.019,11.035-0.361,16.391-1.571
				c3.953-0.892,8.534-2.541,10.638-6.274c1.269-2.25-2.188-4.266-3.453-2.02c-1.742,3.091-6.162,4.004-9.338,4.676
				c-4.842,1.023-9.875,1.205-14.81,1.188c-11.484-0.038-23.132-2.368-32.379-9.602C13.408,53.349,10.556,56.158,12.586,57.746
				L12.586,57.746z"/>
		</g>
	</g>
	<g>
		<g>
			<path d="M73.323,54.393c2.077,0.914,4.47,0.65,6.508,1.547c0.073,0.032,0.107-0.024,0.032,0.438
				c-0.1,0.61-0.353,1.197-0.614,1.752c-0.531,1.13-1.236,2.19-1.976,3.193c-1.533,2.08,1.94,4.071,3.453,2.02
				c1.703-2.311,4.022-5.891,2.869-8.874c-1.322-3.422-5.549-2.339-8.253-3.528C73.005,49.911,70.967,53.356,73.323,54.393
				L73.323,54.393z"/>
		</g>
	</g>
	<g>
		<g>
			<path d="M11.738,35.53c0.913,3.548,1.265,7.163,1.595,10.802c0.19,2.104,3.454,2.892,3.929,0.531
				c0.364-1.812,0.154-3.686,0.073-5.516c-0.038-0.867-0.445-5.26,0.48-5.646c1.574-0.659,2.699,10.61,2.923,11.829
				c0.354,1.927,3.487,1.906,3.857,0c0.663-3.416-0.146-7.738,1.698-10.811c0.255-0.426,1.197,2.601,1.262,2.9
				c0.379,1.753,0.437,3.591,0.444,5.379c0.005,1.09,0.906,2,2,2c1.277,0,2.125-0.827,3.081-1.586
				c2.021-1.603-0.83-4.413-2.828-2.828c-0.434,0.344-0.898,0.654-1.334,1c0.472-0.195,0.942-0.391,1.414-0.586
				c-0.111,0-0.222,0-0.333,0c0.667,0.667,1.333,1.333,2,2c-0.019-4.064-0.167-11.954-5.62-12.371
				c-6.043-0.462-4.972,10.392-5.642,13.84c1.286,0,2.571,0,3.857,0C23.92,42.787,24.161,31.223,18,31.666
				c-6.977,0.502-3.742,9.885-4.596,14.135c1.31,0.177,2.619,0.354,3.929,0.531c-0.361-3.988-0.736-7.977-1.737-11.864
				C14.953,31.971,11.095,33.03,11.738,35.53L11.738,35.53z"/>
		</g>
	</g>
	<g>
		<g>
			<path d="M32.667,33.999c0.523,4.316-0.43,14.647,6.785,13.34c5.132-0.93,3.063-10.332,3.81-13.476
				c-1.31-0.177-2.619-0.354-3.929-0.531c0.062,3.355,0.769,6.784,1.395,10.07c0.391,2.046,0.967,7.215,4.282,5.656
				c2.333-1.096,0.301-4.544-2.02-3.453c-0.019,0.009-0.038,0.018-0.057,0.026c0.514-0.067,1.027-0.135,1.541-0.201
				c1.082,0.453,1.162,1.229,0.868,0.248c-0.146-0.485-0.256-0.982-0.37-1.476c-0.302-1.307-0.537-2.629-0.768-3.95
				c-0.396-2.271-0.83-4.608-0.872-6.921c-0.041-2.219-3.396-2.774-3.929-0.531c-0.808,3.4,0.172,7.013-0.946,10.385
				c-0.215,0.647,0.17,0.401-0.448,0.087c-0.616-0.314-0.707-1.847-0.814-2.438c-0.41-2.251-0.254-4.57-0.528-6.836
				C36.36,31.472,32.356,31.442,32.667,33.999L32.667,33.999z"/>
		</g>
	</g>
	<g>
		<g>
			<path d="M54.333,31.666c-2.651,0.103-6.708,1.288-6.774,4.543c-0.053,2.549,2.088,3.746,4.179,4.537
				c0.774,0.293,3.959,0.932,3.761,2.043c-0.31,1.728-4.369,0.739-4.569,0.012c-0.685-2.484-4.544-1.428-3.857,1.063
				c0.773,2.807,4.45,3.797,6.992,3.845c3.293,0.063,5.819-2.528,5.367-5.839c-0.369-2.705-3.184-3.784-5.427-4.56
				c-0.797-0.275-1.907-0.561-2.478-1.074c0.227,0.204-0.362,0.487,0.359,0.046c0.698-0.426,1.642-0.584,2.447-0.615
				C56.904,35.566,56.913,31.566,54.333,31.666L54.333,31.666z"/>
		</g>
	</g>
	<g>
		<g>
			<path d="M60.667,34.332c0.347,3.564-0.067,7.39,1.606,10.677c1.17,2.299,4.621,0.274,3.453-2.02
				c-1.288-2.529-0.792-5.906-1.06-8.657C64.42,31.789,60.418,31.765,60.667,34.332L60.667,34.332z"/>
		</g>
	</g>
	<g>
		<g>
			<path d="M59.919,26.746c0.111,0.111,0.223,0.223,0.334,0.334c0.771,0.771,2.058,0.771,2.828,0s0.771-2.058,0-2.828
				c-0.111-0.111-0.223-0.223-0.334-0.334c-0.771-0.771-2.058-0.771-2.828,0S59.148,25.976,59.919,26.746L59.919,26.746z"/>
		</g>
	</g>
	<g>
		<g>
			<path d="M76,30.332c-5.069-0.587-6.396,5.237-5.717,9.082c1.019,5.766,6.522,8.896,12.05,8.252c2.53-0.295,2.56-4.298,0-4
				c-3.676,0.428-6.886-0.849-8.018-4.583c-0.461-1.521-0.678-5.024,1.685-4.751C78.56,34.629,78.531,30.625,76,30.332L76,30.332z"
				/>
		</g>
	</g>
</g>
</svg>
