<?xml version="1.0" encoding="utf-8"?>
<!-- Generator: Adobe Illustrator 16.0.0, SVG Export Plug-In . SVG Version: 6.00 Build 0)  -->
<!DOCTYPE svg PUBLIC "-//W3C//DTD SVG 1.1//EN" "http://www.w3.org/Graphics/SVG/1.1/DTD/svg11.dtd">
<svg version="1.1" xmlns="http://www.w3.org/2000/svg" xmlns:xlink="http://www.w3.org/1999/xlink" x="0px" y="0px" width="96px"
	 height="96px" viewBox="0 0 96 96" enable-background="new 0 0 96 96" xml:space="preserve">
<g id="Socials" display="none">
	<g display="inline">
		<g>
			<path fill="#DD0000" d="M64.667,80.999c-7.697,1.003-15.406,0.615-23.143,0.595c-4.924-0.013-9.799,0.583-14.709,0.853
				c-3.008,0.166-8.181,0.793-10.584-1.499c-1.117-1.065-1.23-6.011-1.499-7.554c-0.633-3.642-0.968-7.325-1.246-11.009
				c-1.023-13.574-0.325-27.758,1.798-41.206c0.358-2.271,0.37-3.305,1.848-3.78c2.25-0.725,4.674-0.97,7.014-1.217
				c6.802-0.719,13.407-1.593,20.274-1.484c5.129,0.081,10.168,0.57,15.309,0.424c4.597-0.131,9.184-0.343,13.779-0.044
				c2.563,0.167,6.431,0.596,8.013,2.933c2.712,4.006,0.548,12.22,0.106,16.685c-1.057,10.697,0.526,21.571-0.26,32.356
				c-0.29,3.974,2.142,12.862-3.099,14.088C73.999,82.138,69.042,80.694,64.667,80.999c-7.675,0.534-7.727,12.538,0,12
				c10.015-0.697,21.524,2.762,26.884-8.442c2.881-6.021,1.475-12.819,1.942-19.225c0.367-5.04,0.479-10.028,0.321-15.084
				c-0.2-6.412-0.493-12.435,0.137-18.836c0.628-6.395,0.983-12.698-1.637-18.675C88.546,4.14,77.081,3.013,69.03,2.91
				c-4.606-0.059-9.21,0.265-13.816,0.295c-6.736,0.044-13.37-0.71-20.128-0.301c-5.789,0.351-11.674,1.237-17.41,2.114
				c-5.274,0.807-10.217,2.795-12.44,7.963c-2.105,4.893-2.193,10.372-2.786,15.6c-0.926,8.161-1.36,16.37-1.321,24.582
				C1.163,60.421,1.848,67.63,2.88,74.808c0.862,5.991,1.568,12.304,6.709,16.163c6.045,4.538,14.81,3.728,21.889,3.152
				c11.051-0.899,22.186,0.31,33.189-1.124C72.229,92.014,72.325,80.001,64.667,80.999L64.667,80.999z"/>
		</g>
	</g>
	<g display="inline">
		<g>
			<path fill="#DD0000" d="M37.12,59.737c-1.297-4.468-1.354-9.076-2.004-13.659c-0.321-2.263-0.52-4.458-0.461-6.744
				c0.026-1.03-1.031-0.315,0.875-0.229c2.938,0.131,6.445,1.782,9.198,2.673c4.063,1.315,8.055,2.846,12.166,4.011
				c1.207,0.342,6.479,1.577,6.753,2.255c0.379-1.439,0.145-1.572-0.705-0.396c-0.535,0.413-1.097,0.785-1.686,1.117
				c-1.233,0.766-2.573,1.37-3.888,1.979c-7.98,3.698-16.892,6.09-25.7,6.257c-7.729,0.146-7.743,12.147,0,12
				c12.474-0.237,26.007-3.887,36.662-10.506c5.064-3.146,7.788-7.676,6.888-13.64c-0.816-5.407-7.499-8.17-11.917-9.684
				c-5.661-1.94-11.428-3.684-17.125-5.527c-4.987-1.613-9.914-3.136-15.179-2.137c-6.248,1.186-8.245,8.034-8.385,13.442
				c-0.085,3.289,0.762,6.636,1.085,9.899c0.406,4.101,0.696,8.102,1.851,12.079C27.702,70.344,39.283,67.186,37.12,59.737
				L37.12,59.737z"/>
		</g>
	</g>
</g>
<g id="Music">
	<g>
		<path fill="#FF1D3E" d="M54.333,86.666C42.667,87.332,29,84.999,21.667,75.332C14,64.999,6.333,48.666,10,35.999
			c4.333-15,18-25.333,33-26.667c12.333-1,33,3.334,40,15.667c6.333,10.667,5.333,27,1.667,38.667c-2.333,7.666-7,12.666-13.667,17
			C66,83.999,60,85.666,54.333,86.666"/>
		<g>
			<path fill="#FF1D3E" d="M54.333,78.666c-7.689,0.359-16.851-0.061-23.206-5.034c-6.832-5.347-11.018-15.597-13.174-23.72
				c-4.657-17.538,11.474-32.383,28.2-32.717c7.221-0.145,14.829,1.39,21.324,4.559c7.021,3.425,10.765,9.152,11.78,16.904
				c1.1,8.4,0.189,18.605-3.68,26.251c-4.418,8.73-14.384,12.364-23.37,14.043c-10.134,1.893-5.83,17.312,4.254,15.428
				c13.045-2.437,24.953-8.842,32.253-20.209c6.532-10.173,7.878-25.313,6.349-36.999C93.44,24.784,87.63,14.773,76.665,8.524
				C67.316,3.197,55.739,1.004,45.07,1.217C32.863,1.461,21.187,6.978,12.734,15.664C3.319,25.341-0.146,38.033,1.887,51.155
				c1.823,11.773,8.9,25.896,17.927,33.79c9.333,8.162,22.515,10.281,34.52,9.721C64.605,94.187,64.652,78.184,54.333,78.666
				L54.333,78.666z"/>
		</g>
	</g>
	<g>
		<path fill="#FFFFFF" d="M36.266,17.908c-1.054,11.212,0.459,22.593-0.595,33.806c-0.614,4.472,0.257,15.811-1.92,19.536
			c-2.861,4.326-12.861,4.45-13.168-0.728c-0.481-7.445,12.813-8.644,9.463-1.771l0,0l0,0c0.042-0.642,0.384-0.941,0.426-1.584"/>
		<g>
			<path fill="#FFFFFF" d="M32.266,17.908c-0.614,7.513-0.292,15.023-0.207,22.549c0.072,6.265-0.587,12.48-0.698,18.738
				c-0.076,4.31,1.049,10.865-4.639,11.256c-1.648,0.113-2.835-0.203-1.416-1.619c0.286-0.285,1.05-0.55,1.452-0.603
				c1.34-0.175,0.04-2.046-0.57-0.541c2.571,0.709,5.143,1.418,7.714,2.127c0.143-0.528,0.284-1.056,0.426-1.584
				c1.34-4.989-6.378-7.104-7.714-2.127c-0.142,0.528-0.284,1.057-0.426,1.584c-1.376,5.114,5.829,6.777,7.714,2.127
				c3.493-8.613-6.836-11.362-12.808-7.758c-3.201,1.933-5.017,5.856-4.369,9.528c0.803,4.557,4.831,6.308,8.976,6.839
				c3.864,0.494,8.464-1.329,10.877-4.347c2.861-3.577,2.63-9.277,2.755-13.604c0.175-6.051,0.681-12.086,0.731-18.137
				c0.067-8.158-0.465-16.281,0.201-24.43C40.686,12.763,32.683,12.804,32.266,17.908L32.266,17.908z"/>
		</g>
	</g>
	<g>
		<path fill="#FFFFFF" d="M69.792,17.841c0.46,7.766,0.599,15.511,0.417,23.234c-0.077,6.119,2.608,29.18-3.08,32.354l0,0
			c-3.593,0.732-11.203,2.616-11-4.264c0.257-8.687,14.403-5.179,9.019-4.891"/>
		<g>
			<path fill="#FFFFFF" d="M65.792,17.841c0.481,8.623,0.142,17.237,0.479,25.851c0.221,5.656,0.604,11.29,0.458,16.954
				c-0.069,2.669-0.304,5.303-1.006,7.884c-0.518,1.902-1.525,1.533-3.706,1.688c-2.165,0.152-2.717-1.802-0.705-2.553
				c0.805-0.301,1.601-0.324,2.448-0.326c1.757-0.004,0.521,0.941-0.843-1.366c0-1.346,0-2.691,0-4.037
				c0.744-0.554,1.488-1.106,2.232-1.659c-5.097,0.451-5.141,8.455,0,8c1.964-0.174,3.537-0.552,4.675-2.304
				c0.766-1.18,0.701-2.853,0-4.037c-3.445-5.825-13.811-1.736-16.513,2.586c-2.2,3.519-1.414,9.014,1.728,11.659
				c3.463,2.915,8.371,2.078,12.436,1.256c8.412-1.703,7.375-16.422,7.271-22.552c-0.21-12.325-0.267-24.74-0.954-37.043
				C73.506,12.712,65.505,12.684,65.792,17.841L65.792,17.841z"/>
		</g>
	</g>
	<g>
		<path fill="#FFFFFF" d="M36.608,17.608c9.796-1.938,22.209,0.482,32.542,0.189c1.137,2.332,1.443,7.509,0.313,10.014
			c-2.219,4.367-12.169,3.717-17.346,4.024c-2.931,0.454-5.798-0.057-8.729,0.396c-4.515,0.027-4.919,1.291-6.273-2.665
			c-1.074-3.294-1.297-9.755-0.809-12.302c0,0-0.021,0.32,0,0"/>
		<g>
			<path fill="#FFFFFF" d="M37.672,21.466c10.369-1.792,21.041,0.488,31.479,0.332c-1.286-0.979-2.571-1.958-3.857-2.937
				c0.682,1.762,0.862,3.408,0.868,5.296c0.006,2.462-1.513,2.6-3.562,3.057c-3.379,0.754-7.042,0.459-10.482,0.622
				c-4.164,0.197-8.329,0.432-12.497,0.609c1.628,1.337,2.079,1.356,1.353,0.059c-0.46-1.247-0.606-2.648-0.746-3.956
				c-0.214-2.001-0.349-4.217-0.063-6.219c-2.619-0.354-5.238-0.709-7.857-1.063c-0.002,0.04-0.005,0.08-0.008,0.12
				c-0.33,5.154,7.672,5.122,8,0c0.003-0.04,0.005-0.08,0.008-0.12c0.33-5.154-7.672-5.122-8,0c-0.002,0.04-0.005,0.08-0.008,0.12
				c-0.33,5.154,7.672,5.122,8,0c0.003-0.04,0.005-0.08,0.008-0.12c0.286-4.463-7.217-5.538-7.857-1.063
				c-0.777,5.433-0.932,12.965,2.31,17.71c1.295,1.895,3.315,2.6,5.538,2.505c3.921-0.168,7.919-0.198,11.819-0.581
				c5.988-0.588,12.005,0.21,17.537-2.694c5.544-2.91,5.287-11.417,3.354-16.407c-0.645-1.664-1.946-2.965-3.857-2.937
				c-11.244,0.169-22.418-1.979-33.606-0.047C30.469,14.628,32.627,22.337,37.672,21.466L37.672,21.466z"/>
		</g>
	</g>
</g>
</svg>
