<?xml version="1.0" encoding="utf-8"?>
<!-- Generator: Adobe Illustrator 16.0.0, SVG Export Plug-In . SVG Version: 6.00 Build 0)  -->
<!DOCTYPE svg PUBLIC "-//W3C//DTD SVG 1.1//EN" "http://www.w3.org/Graphics/SVG/1.1/DTD/svg11.dtd">
<svg version="1.1" xmlns="http://www.w3.org/2000/svg" xmlns:xlink="http://www.w3.org/1999/xlink" x="0px" y="0px" width="96px"
	 height="96px" viewBox="0 0 96 96" enable-background="new 0 0 96 96" xml:space="preserve">
<g id="Socials" display="none">
	<g display="inline">
		<g>
			<path d="M84.35,79.88c-4.683,1.523-10.181,0.927-15.025,0.793c-6.642-0.184-13.245-0.361-19.895-0.312
				c-7.332,0.054-14.642,0.35-21.944,1.002c-2.479,0.222-4.96,0.35-7.448,0.352c-1.151,0.001-2.329-0.04-3.461-0.243
				c-1.959-0.353,0.018,1.131-0.395,0.165C13.154,74.54,2.819,80.661,5.82,87.694c2.404,5.637,10.123,6.025,15.316,6.021
				c6.995-0.006,14.015-1.015,21.013-1.228c8.221-0.25,16.441-0.207,24.659,0.102c6.676,0.25,14.272,0.963,20.73-1.138
				C94.865,89.069,91.729,77.48,84.35,79.88L84.35,79.88z"/>
		</g>
	</g>
	<g display="inline">
		<g>
			<path d="M82.916,13.822c-0.191-0.097-1.821-2.032-1.462-1.42c-0.849-1.443-0.334-0.845-0.149-0.241
				c0.129,0.42,0.559,2.91,0.392,1.646c0.403,3.047,0.486,6.142,0.563,9.21c0.202,8.158-0.067,16.332-0.374,24.483
				c-0.479,12.705-1.833,25.456-1.941,38.166c-0.066,7.741,11.934,7.735,12,0C92.063,71.909,93.519,58.11,94,44.356
				c0.294-8.424,0.512-16.879,0.12-25.303c-0.219-4.728-0.092-13.04-5.147-15.592C82.083-0.018,76.007,10.334,82.916,13.822
				L82.916,13.822z"/>
		</g>
	</g>
	<g display="inline">
		<g>
			<path d="M16.667,84.333c-2.19-25.174-1.672-50.425-1.977-75.663c-2,2-4,4-6,6c25.681,1.51,51.622-2.582,77.254-0.028
				c7.699,0.767,7.625-11.24,0-12C60.313,0.087,34.371,4.18,8.69,2.669c-3.239-0.19-6.038,2.873-6,6
				c0.305,25.238-0.214,50.489,1.977,75.663C5.332,91.98,17.338,92.045,16.667,84.333L16.667,84.333z"/>
		</g>
	</g>
	<g display="inline">
		<g>
			<path d="M69.334,32.333c7.738,0,7.738-12,0-12S61.596,32.333,69.334,32.333L69.334,32.333z"/>
		</g>
	</g>
	<g display="inline">
		<g>
			<path d="M46.334,63.666c-9.924,0.867-10.901-10.163-4.976-15.836c3.759-3.599,12.871-5.966,15.998-1.509
				c4.109,5.857-0.483,19.211-9.428,17.56c-7.563-1.396-10.793,10.168-3.189,11.571c10.921,2.016,20.086-3.768,24.189-13.897
				c3.604-8.898,2.263-20.054-5.744-26.073c-11.21-8.425-27.757-1.245-34.715,9.194C19.589,58,30.348,77.063,46.334,75.666
				C53.981,74.998,54.046,62.992,46.334,63.666L46.334,63.666z"/>
		</g>
	</g>
</g>
<g id="Music">
	<g>
		<g>
			<path fill="#FFFFFF" d="M53.667,56.666c2.579,0,2.579-4,0-4S51.088,56.666,53.667,56.666L53.667,56.666z"/>
		</g>
	</g>
	<g>
		<path d="M44.774,7.615c-22.107,0-25.243,8.618-31.954,18.616c-9.585,14.133-6.072,31.714,3.514,44.47
			c9.268,12.065,25.244,19.994,39.623,18.27c7.667-1.034,15.019-7.239,20.449-12.755c6.71-6.549,8.948-12.41,11.824-21.373
			c3.834-13.099-2.239-25.509-11.184-34.473C67.46,11.063,59.667,7.615,44.774,7.615"/>
		<g>
			<path d="M44.774,1.615C34.417,1.726,24.112,3.46,16.479,10.991C9.957,17.426,4.208,27.344,2.11,36.125
				C-4.041,61.873,16.476,86.75,40.227,93.597c13.518,3.896,25.184,0.13,35.698-8.689c9.81-8.228,16.31-19.155,18.848-31.728
				c4.899-24.274-17.947-48.22-41.023-51.027C50.761,1.789,47.783,1.642,44.774,1.615c-7.741-0.068-7.734,11.932,0,12
				c8.575,0.076,15.97,1.515,23.021,6.572c7.977,5.721,14.755,15.041,15.563,25.003c0.769,9.487-4.683,20.209-11.194,26.782
				c-3.863,3.899-8.121,7.86-13.253,10.018c-4.418,1.859-9.521,1.374-14.083,0.39C26.114,78.346,9.949,58.924,13.682,39.314
				c1.29-6.782,6.102-14.026,10.685-19.205c5.137-5.803,13.121-6.416,20.408-6.494C52.508,13.533,52.516,1.532,44.774,1.615
				L44.774,1.615z"/>
		</g>
	</g>
	<g>
		<path fill="#FFFFFF" d="M49.329,26.999c2.387,2.917,5.121,6.979,7.688,9.809l0,0c0.53,0.265,1.062,1.061,1.325,1.061
			c0,0.265,0.266,0.265,0.531,0.53l0,0c-3.711,3.711-3.505,6.825-10.073,11.664c0,0-3.446-3.976-3.712-4.506
			c-2.386-2.916-4.242-5.567-6.627-8.218c3.596-3.359,7.423-6.097,10.073-9.543"/>
		<g>
			<path fill="#FFFFFF" d="M47.915,28.413c1.93,2.395,3.715,4.903,5.608,7.327c1.538,1.969,2.933,3.363,4.34,4.385
				c-0.135-1.047-0.27-2.094-0.404-3.141c-1.508,1.562-2.685,3.331-3.847,5.154c-1.56,2.444-3.511,4.447-5.822,6.196
				c0.809,0.104,1.616,0.208,2.424,0.313c-3.579-4.135-6.718-8.627-10.339-12.724c0,0.943,0,1.885,0,2.828
				c3.403-3.133,7.169-5.911,10.073-9.543c1.594-1.993-1.217-4.843-2.828-2.828c-2.905,3.632-6.671,6.41-10.073,9.543
				c-0.838,0.771-0.698,2.039,0,2.828c3.62,4.097,6.76,8.59,10.339,12.724c0.533,0.616,1.753,0.82,2.424,0.313
				c2.437-1.844,4.563-3.826,6.363-6.301c1.392-1.911,2.459-3.96,4.114-5.676c0.961-0.996,0.639-2.384-0.404-3.141
				c0.298,0.316,0.256,0.244-0.127-0.217c-0.352-0.352-0.812-0.68-1.209-0.98c-1.139-0.859-2.073-2.393-2.931-3.511
				c-1.63-2.123-3.193-4.294-4.873-6.378C49.124,23.575,46.313,26.424,47.915,28.413L47.915,28.413z"/>
		</g>
	</g>
	<g>
		<path fill="#FFFFFF" d="M24.472,26.203c2.874,4.026,5.57,6.339,7.688,9.809l0,0c0.53,0.265,1.061,1.061,1.325,1.061
			c0,0.265,0.266,0.265,0.531,0.53l0,0c-3.711,3.711-5.036,6.646-10.073,11.664c-0.133,1.803-5.302-6.754-5.567-7.284
			c-2.386-2.916-2.387-2.789-4.771-5.44c4.188-2.564,7.422-6.097,10.073-9.543"/>
		<g>
			<path fill="#FFFFFF" d="M22.745,27.212c1.784,2.442,3.779,4.695,5.704,7.023c0.907,1.097,1.564,2.646,2.7,3.503
				c-0.023-0.018,1.295,1.438,0.774,0.607c0.275,0.439,0.674,0.686,1.082,0.983c-0.135-1.047-0.27-2.094-0.404-3.141
				c-1.794,1.829-3.355,3.831-4.933,5.844c-0.876,1.118-1.786,2.207-2.725,3.272c-0.565,0.643-1.159,1.259-1.752,1.876
				c-0.07,0.074-1.5,1.882-1.067,1.305c0.398-0.307,0.797-0.613,1.195-0.919c1.412-0.322,1.765,0.721,0.825-0.392
				c-0.444-0.526-0.822-1.117-1.21-1.684c-0.756-1.105-1.467-2.241-2.165-3.383c-1.581-2.583-3.729-4.738-5.753-6.979
				c-0.135,1.047-0.27,2.094-0.404,3.141c4.124-2.614,7.49-6.018,10.478-9.856c1.564-2.009-1.245-4.862-2.828-2.828
				c-2.772,3.561-5.836,6.8-9.669,9.23c-1.126,0.714-1.286,2.165-0.404,3.141c1.79,1.983,3.738,3.877,5.127,6.169
				c1.324,2.187,2.694,4.462,4.423,6.358c2.369,2.601,4.547-0.71,6.033-2.351c2.67-2.947,4.868-6.272,7.657-9.116
				c0.97-0.988,0.632-2.389-0.404-3.141c0.298,0.316,0.256,0.244-0.127-0.217c-0.352-0.352-0.812-0.68-1.209-0.98
				c-0.743-0.561-1.327-1.915-1.926-2.664c-1.835-2.293-3.83-4.446-5.565-6.82C24.693,23.134,21.22,25.126,22.745,27.212
				L22.745,27.212z"/>
		</g>
	</g>
	<g>
		<path fill="#FFFFFF" d="M74.188,27.794c2.386,2.916,4.506,7.157,7.687,9.808l0,0c0.53,0.266,1.062,1.061,1.325,1.061
			c0,0.265,0.267,0.265,0.531,0.53l0,0c-3.397,5.34-5.036,6.645-10.073,11.664l-3.712-4.506c-2.688-1.817-4.241-5.566-6.627-8.218
			c2.916-3.181,5.469-4.959,10.073-9.543"/>
		<g>
			<path fill="#FFFFFF" d="M72.773,29.208c1.769,2.235,3.177,4.731,4.975,6.946c0.939,1.157,1.922,2.272,3.116,3.175
				c-0.023-0.018,1.295,1.438,0.774,0.608c0.275,0.439,0.674,0.686,1.082,0.983c-0.239-0.912-0.478-1.824-0.717-2.736
				c-2.754,4.281-6.168,7.688-9.761,11.259c0.942,0,1.886,0,2.828,0c-1.194-1.451-2.39-2.901-3.585-4.352
				c-1.029-1.25-2.282-2.169-3.241-3.546c-1.143-1.641-2.211-3.304-3.513-4.826c0,0.943,0,1.885,0,2.828
				c3.152-3.385,6.783-6.294,10.073-9.543c1.838-1.814-0.992-4.642-2.828-2.828c-3.29,3.249-6.922,6.158-10.073,9.543
				c-0.787,0.845-0.728,1.977,0,2.828c1.406,1.646,2.501,3.521,3.778,5.265c0.871,1.189,2.069,2.008,2.976,3.108
				c1.195,1.451,2.39,2.901,3.585,4.352c0.695,0.845,2.111,0.713,2.828,0c3.839-3.814,7.446-7.496,10.386-12.068
				c0.633-0.984,0.134-2.118-0.717-2.736c0.298,0.315,0.256,0.243-0.127-0.217c-0.352-0.352-0.812-0.68-1.209-0.98
				c-1.156-0.873-2.127-2.032-3.004-3.175c-1.677-2.184-3.088-4.552-4.799-6.713C74.001,24.358,71.19,27.209,72.773,29.208
				L72.773,29.208z"/>
		</g>
	</g>
	<g>
		<path fill="#FFFFFF" d="M48.492,55.037c2.386,2.917,4.506,7.158,7.687,9.809l0,0c0.531,0.266,1.062,1.061,1.326,1.061
			c0,0.265,0.265,0.265,0.53,0.53l0,0c-3.711,3.711-5.036,6.646-10.073,11.664c1.855,1.325-3.446-3.977-3.712-4.507
			c-2.386-2.916-4.241-5.567-6.627-8.218C40.539,62.195,45.841,58.483,48.492,55.037"/>
		<g>
			<path fill="#FFFFFF" d="M47.078,56.451c1.769,2.235,3.177,4.731,4.975,6.947c0.939,1.157,1.921,2.273,3.116,3.175
				c-0.021-0.016,1.294,1.438,0.774,0.607c0.274,0.439,0.674,0.686,1.082,0.983c-0.135-1.047-0.27-2.094-0.404-3.141
				c-3.605,3.676-6.444,7.996-10.073,11.664c-0.95,0.96-0.66,2.425,0.404,3.141c0.434,0.292,0.865,0.454,1.397,0.479
				c1.019,0.048,2.096-0.949,2-2c-0.174-1.921-2.44-3.612-3.666-4.94c-2.312-2.504-4.955-6.361-7.646-9.404c0,0.943,0,1.885,0,2.828
				c3.438-3.637,7.721-6.42,10.869-10.338c1.6-1.99-1.212-4.839-2.828-2.828c-3.148,3.918-7.431,6.701-10.869,10.338
				c-0.783,0.829-0.737,1.994,0,2.828c2.454,2.776,4.566,5.822,6.961,8.644c0.595,0.701,1.241,1.361,1.866,2.035
				c0.381,0.411,0.759,0.824,1.133,1.241c0.609,0.68,0.275,0.648,0.181-0.403c0.667-0.667,1.333-1.333,2-2
				c0.863,0.313,1.07,0.336,0.622,0.067c0.135,1.047,0.27,2.094,0.404,3.141c3.629-3.668,6.469-7.988,10.073-11.664
				c0.97-0.989,0.631-2.388-0.404-3.141c0.299,0.316,0.257,0.244-0.126-0.217c-0.352-0.352-0.812-0.68-1.21-0.98
				c-1.156-0.873-2.127-2.032-3.004-3.175c-1.677-2.184-3.088-4.553-4.799-6.714C48.306,51.601,45.495,54.452,47.078,56.451
				L47.078,56.451z"/>
		</g>
	</g>
</g>
</svg>
