<?xml version="1.0" encoding="utf-8"?>
<!-- Generator: Adobe Illustrator 16.0.0, SVG Export Plug-In . SVG Version: 6.00 Build 0)  -->
<!DOCTYPE svg PUBLIC "-//W3C//DTD SVG 1.1//EN" "http://www.w3.org/Graphics/SVG/1.1/DTD/svg11.dtd">
<svg version="1.1" xmlns="http://www.w3.org/2000/svg" xmlns:xlink="http://www.w3.org/1999/xlink" x="0px" y="0px" width="96px"
	 height="96px" viewBox="0 0 96 96" enable-background="new 0 0 96 96" xml:space="preserve">
<g id="Socials">
	<g>
		<path fill="#0000FF" d="M45.074,4.969c46.737-11.637,63.823,48.876,33.667,75.643c-12.625,11.056-39.983,18.621-54.713,6.4
			C11.406,76.54,1.468,56.999,3.172,39.881C3.434,37.255,12.362,9.501,45.074,4.969"/>
		<g>
			<path fill="#0000FF" d="M45.473,6.416C63.982,2.03,81.287,9.648,88.779,27.466c6.685,15.895,3.84,35.351-7.432,48.411
				c-7.254,8.405-18.205,13.007-28.889,15.096c-5.903,1.154-12.055,1.105-17.897-0.319c-6.511-1.587-11.353-5.946-15.682-10.83
				C9.713,69.483,3.975,55.218,4.555,41.354c0.178-4.27,2.997-9.093,5.354-12.834C17.823,15.96,30.995,8.603,45.473,6.416
				c1.908-0.288,1.094-3.178-0.798-2.893C27.248,6.155,12.261,16.274,4.409,32.188C-3.146,47.501,4.934,67.22,14.84,79.608
				c6.894,8.621,14.628,14.035,25.779,15.056c10.596,0.97,21.636-2.354,30.902-7.283c14.987-7.971,23.234-23.912,23.773-40.536
				c0.411-12.667-4.145-25.667-13.177-34.659C72.163,2.274,57.878,0.395,44.675,3.523C42.793,3.969,43.591,6.861,45.473,6.416
				L45.473,6.416z"/>
		</g>
	</g>
	<g>
		<g>
			<path fill="#FFFFFF" d="M48.899,76.339c-3.033-11.984-2.106-24.429-2.065-36.673c0.005-1.61-0.015-3.201,0.35-4.772
				c0.25-1.077-0.292-0.308,0.551-0.954c4.708-3.607,9.131-4.332,14.605-2.042c3.779,1.581,8.246-1.675,9.226-5.238
				c1.189-4.323-1.47-7.649-5.238-9.226c-11.989-5.015-30.585,0.419-33.817,14.373c-1.601,6.911-0.784,14.778-0.817,21.814
				c-0.042,8.967,0.535,17.987,2.742,26.705C36.808,89.699,51.274,85.721,48.899,76.339L48.899,76.339z"/>
		</g>
	</g>
	<g>
		<g>
			<path fill="#FFFFFF" d="M47.994,62.564c4.745-0.948,9.511-2.001,14.34-2.398c4.073-0.335,7.5-3.158,7.5-7.5
				c0-3.834-3.419-7.835-7.5-7.5c-6.17,0.508-12.264,1.723-18.327,2.935c-4.011,0.801-6.263,5.5-5.238,9.226
				C39.91,61.475,43.989,63.365,47.994,62.564L47.994,62.564z"/>
		</g>
	</g>
</g>
<g id="Music" display="none">
	<g display="inline">
		<path fill="#00DF5F" d="M41.334,84.333C17.334,81.333,9,60.999,11,42.666c1-9.667,5.333-19,13-24.333
			c7.667-5.333,22.962-7.733,31.333-6.667c26.149,3.333,28.333,18.001,29,36.334c0.333,8.333-2.333,18.999-8.667,25.666
			c-6,6.667-9,10.176-17.667,11.176C54.333,85.175,47,85.156,41.334,84.333"/>
		<g>
			<path fill="#00DF5F" d="M43.328,77.101c-7.846-1.113-15.132-3.98-19.813-10.678c-4.394-6.287-5.579-13.948-5.21-21.456
				c0.437-8.882,4.469-17.717,12.545-21.951c7.31-3.831,17.561-4.963,25.636-3.643c6.7,1.096,13.389,3.415,16.899,9.427
				c3.175,5.439,3.209,12.941,3.449,19.2c0.402,10.468-4.033,18.242-11.206,25.442c-6.029,6.052-16.616,4.395-24.294,3.39
				c-4.064-0.532-7.5,3.814-7.5,7.5c0,4.49,3.447,6.97,7.5,7.5c11.691,1.529,23.574,1.418,33.146-6.188
				c10.11-8.035,15.601-19.549,17.16-32.13c1.089-8.794-0.041-19.716-3.321-27.96c-3.837-9.646-11.352-15.6-21.01-18.962
				C56.143,2.704,43.825,3.508,32.574,6.506C19.79,9.912,11.21,18.199,6.231,30.307c-8.183,19.898-0.725,45.98,18.309,56.544
				c4.557,2.529,9.67,3.985,14.8,4.713c4.044,0.574,8.039-0.924,9.226-5.238C49.544,82.77,47.383,77.676,43.328,77.101
				L43.328,77.101z"/>
		</g>
	</g>
	<g display="inline">
		<g>
			<path d="M70.861,55.823c-15.375-9.754-34.773-13.185-52.498-9.085c-3.769,0.872-2.17,6.657,1.595,5.786
				c16.198-3.747,33.858-0.413,47.875,8.479C71.111,63.083,74.118,57.889,70.861,55.823L70.861,55.823z"/>
		</g>
	</g>
	<g display="inline">
		<g>
			<path d="M80.113,43.95c-8.433-6.928-19.431-10.042-29.981-12.025c-10.282-1.933-21.5-3.003-31.798-0.612
				c-5.652,1.313-3.255,9.99,2.393,8.679c8.702-2.021,18.326-0.912,27.013,0.612c8.764,1.538,18.971,3.928,26.009,9.711
				C78.194,53.967,84.601,47.637,80.113,43.95L80.113,43.95z"/>
		</g>
	</g>
	<g display="inline">
		<g>
			<path d="M64.2,65.317c-13.031-8.237-27.271-10.783-42.294-7.249c-3.766,0.886-2.168,6.671,1.595,5.786
				c13.5-3.176,25.989-0.742,37.671,6.643C64.453,72.572,67.46,67.378,64.2,65.317L64.2,65.317z"/>
		</g>
	</g>
</g>
</svg>
